<?xml version="1.0" encoding="utf-8"?>
<!-- Generator: Adobe Illustrator 22.1.0, SVG Export Plug-In . SVG Version: 6.00 Build 0)  -->
<svg version="1.1" id="Capa_1" xmlns="http://www.w3.org/2000/svg" xmlns:xlink="http://www.w3.org/1999/xlink" x="0px" y="0px"
	 viewBox="0 0 500 500" style="enable-background:new 0 0 500 500;" xml:space="preserve">
<style type="text/css">
	.st0{fill:#0A3871;}
	.st1{opacity:0.7;fill:#FFFFFF;enable-background:new    ;}
	.st2{fill:#707070;stroke:#263238;stroke-linejoin:round;}
	.st3{fill:#263238;stroke:#263238;stroke-linejoin:round;}
	.st4{fill:#FFFFFF;stroke:#263238;stroke-linejoin:round;}
	.st5{fill:#707070;}
	.st6{opacity:0.5;fill:#FFFFFF;enable-background:new    ;}
	.st7{fill:none;stroke:#B2B2B2;stroke-miterlimit:10;}
	.st8{fill:none;stroke:#263238;stroke-miterlimit:10;}
	.st9{fill:#0A3871;stroke:#263238;stroke-linecap:round;stroke-linejoin:round;}
	.st10{fill:#263238;}
	.st11{fill:none;stroke:#263238;stroke-linecap:round;stroke-linejoin:round;}
	.st12{fill:none;stroke:#000000;stroke-miterlimit:10;}
	.st13{fill:none;stroke:#263238;stroke-width:2;stroke-linecap:round;stroke-linejoin:round;}
	.st14{opacity:0.3;fill:#263238;enable-background:new    ;}
	.st15{opacity:0.2;fill:#263238;enable-background:new    ;}
	.st16{fill:#263238;stroke:#263238;stroke-width:2;stroke-linecap:round;stroke-linejoin:round;}
	.st17{fill:none;stroke:#263238;stroke-linejoin:round;}
	.st18{fill:#FFFFFF;stroke:#263238;stroke-linecap:round;stroke-linejoin:round;}
	.st19{fill:#0A3871;stroke:#263238;stroke-linejoin:round;}
	.st20{fill:none;stroke:#7D7D7D;stroke-linejoin:round;}
</style>
<g id="freepik--background-simple--inject-32">
	<path class="st0" d="M472.4,224c-15.1-73.2-63-135.3-130-168.5c-7.1-3.5-14.5-7-22.4-10.5c-99-44-156-6-185,38S70,203,47,240
		s-53,115,5,169s113,36,151,21s76-2,146-2s128-54,132-121C482.5,282.5,478.3,252.3,472.4,224z"/>
	<path class="st1" d="M472.4,224c-15.1-73.2-63-135.3-130-168.5c-7.1-3.5-14.5-7-22.4-10.5c-99-44-156-6-185,38S70,203,47,240
		s-53,115,5,169s113,36,151,21s76-2,146-2s128-54,132-121C482.5,282.5,478.3,252.3,472.4,224z"/>
</g>
<g id="freepik--Device--inject-32">
	<path class="st2" d="M369,160.5v-38.7h-3.5V72.3c0-16.8-13.7-30.5-30.5-30.5H171.1c-16.9,0-30.5,13.6-30.5,30.5l0,0v333.1
		c0,16.9,13.7,30.5,30.5,30.5l0,0H335c16.9,0,30.5-13.7,30.5-30.5l0,0v-212h3.5v-22.8h-3.5v-10.1L369,160.5L369,160.5z"/>
	<path class="st3" d="M174.6,46h156.9c16.9,0,30.5,13.7,30.5,30.5v324.7c0,16.9-13.7,30.5-30.5,30.5H174.6
		c-16.9,0-30.5-13.7-30.5-30.5V76.5C144.1,59.7,157.8,46,174.6,46z"/>
	<path class="st4" d="M325.4,48.8h-60.5l-0.1,0.2c-1.8,6.5-5.9,10.6-10.5,10.6h-2.6c-4.6,0-8.7-4.2-10.5-10.6l-0.1-0.2h-60.5
		c-16.9,0-30.5,13.6-30.5,30.5l0,0v304.3c0,16.9,13.7,30.5,30.5,30.5l0,0h144.7c16.9,0,30.5-13.6,30.5-30.5l0,0V79.3
		C355.9,62.4,342.3,48.8,325.4,48.8L325.4,48.8z"/>
	<circle class="st5" cx="252.4" cy="50.2" r="2.9"/>
	<rect x="159.8" y="165.7" class="st0" width="187.7" height="56.2"/>
	<rect x="159.8" y="165.7" class="st6" width="187.7" height="56.2"/>
	<line class="st7" x1="329.1" y1="199.5" x2="346.1" y2="199.5"/>
	<line class="st7" x1="293" y1="199.5" x2="323.9" y2="199.5"/>
	<line class="st7" x1="245" y1="199.5" x2="288.9" y2="199.5"/>
	<line class="st7" x1="209.3" y1="199.5" x2="240.2" y2="199.5"/>
	<line class="st7" x1="183.9" y1="199.5" x2="203.8" y2="199.5"/>
	<line class="st7" x1="167.9" y1="199.5" x2="180.1" y2="199.5"/>
	<line class="st7" x1="328.7" y1="206" x2="346.1" y2="206"/>
	<line class="st7" x1="287.5" y1="206" x2="324.6" y2="206"/>
	<line class="st7" x1="240.2" y1="206" x2="282.7" y2="206"/>
	<line class="st7" x1="199.3" y1="206" x2="236.4" y2="206"/>
	<line class="st7" x1="167.9" y1="206" x2="196.2" y2="206"/>
	<line class="st7" x1="334.2" y1="212.4" x2="346.1" y2="212.4"/>
	<line class="st7" x1="296.8" y1="212.4" x2="331.8" y2="212.4"/>
	<line class="st7" x1="247.7" y1="212.4" x2="292" y2="212.4"/>
	<line class="st7" x1="210" y1="212.4" x2="244.3" y2="212.4"/>
	<line class="st7" x1="181.8" y1="212.4" x2="206.5" y2="212.4"/>
	<line class="st7" x1="167.9" y1="212.4" x2="177.7" y2="212.4"/>
	<line class="st7" x1="329.1" y1="252.5" x2="346.1" y2="252.5"/>
	<line class="st7" x1="293" y1="252.5" x2="323.9" y2="252.5"/>
	<line class="st7" x1="245" y1="252.5" x2="288.9" y2="252.5"/>
	<line class="st7" x1="209.3" y1="252.5" x2="240.2" y2="252.5"/>
	<line class="st7" x1="183.9" y1="252.5" x2="203.8" y2="252.5"/>
	<line class="st7" x1="167.9" y1="252.5" x2="180.1" y2="252.5"/>
	<line class="st7" x1="328.7" y1="259" x2="346.1" y2="259"/>
	<line class="st7" x1="287.5" y1="259" x2="324.6" y2="259"/>
	<line class="st7" x1="240.2" y1="259" x2="282.7" y2="259"/>
	<line class="st7" x1="199.3" y1="259" x2="236.4" y2="259"/>
	<line class="st7" x1="167.9" y1="259" x2="196.2" y2="259"/>
	<line class="st7" x1="334.2" y1="265.4" x2="346.1" y2="265.4"/>
	<line class="st7" x1="296.8" y1="265.4" x2="331.8" y2="265.4"/>
	<line class="st7" x1="247.7" y1="265.4" x2="292" y2="265.4"/>
	<line class="st7" x1="210" y1="265.4" x2="244.3" y2="265.4"/>
	<line class="st7" x1="181.8" y1="265.4" x2="206.5" y2="265.4"/>
	<line class="st7" x1="167.9" y1="265.4" x2="177.7" y2="265.4"/>
	<line class="st7" x1="329.1" y1="305.5" x2="346.1" y2="305.5"/>
	<line class="st7" x1="293" y1="305.5" x2="323.9" y2="305.5"/>
	<line class="st7" x1="245" y1="305.5" x2="288.9" y2="305.5"/>
	<line class="st7" x1="209.3" y1="305.5" x2="240.2" y2="305.5"/>
	<line class="st7" x1="183.9" y1="305.5" x2="203.8" y2="305.5"/>
	<line class="st7" x1="167.9" y1="305.5" x2="180.1" y2="305.5"/>
	<line class="st7" x1="328.7" y1="312" x2="346.1" y2="312"/>
	<line class="st7" x1="287.5" y1="312" x2="324.6" y2="312"/>
	<line class="st7" x1="240.2" y1="312" x2="282.7" y2="312"/>
	<line class="st7" x1="199.3" y1="312" x2="236.4" y2="312"/>
	<line class="st7" x1="167.9" y1="312" x2="196.2" y2="312"/>
	<line class="st7" x1="334.2" y1="318.4" x2="346.1" y2="318.4"/>
	<line class="st7" x1="296.8" y1="318.4" x2="331.8" y2="318.4"/>
	<line class="st7" x1="247.7" y1="318.4" x2="292" y2="318.4"/>
	<line class="st7" x1="210" y1="318.4" x2="244.3" y2="318.4"/>
	<line class="st7" x1="181.8" y1="318.4" x2="206.5" y2="318.4"/>
	<line class="st7" x1="167.9" y1="318.4" x2="177.7" y2="318.4"/>
	<line class="st8" x1="159.8" y1="165.7" x2="347.5" y2="165.7"/>
	<line class="st8" x1="159.8" y1="221.9" x2="347.5" y2="221.9"/>
	<line class="st8" x1="159.8" y1="279.2" x2="347.5" y2="279.2"/>
	<line class="st8" x1="159.8" y1="338.5" x2="347.5" y2="338.5"/>
	<path class="st9" d="M219.6,131.5l9.6,2.2l2.2-9.8l-9.2-2.1c0-0.3,0-0.6,0-0.8c0-3-0.6-5.9-1.8-8.6l7.6-6l-6.2-7.8l-7.2,5.7
		c-2.5-2.1-5.5-3.7-8.7-4.5v-9.3h-10v9c-3.3,0.6-6.4,2-9.1,4.1l-7.2-5.8l-6.2,7.8l7.1,5.6c-1.5,3-2.3,6.2-2.4,9.6l-9.2,2.1l2.2,9.8
		l9.1-2.1c1.4,2.9,3.4,5.5,5.9,7.6l-4.2,8.8l9.1,4.3l4.2-8.7c3.1,0.8,6.3,0.8,9.4,0.2l4.3,9l9.1-4.3l-4.2-8.7
		C216.1,136.7,218.1,134.3,219.6,131.5z M190.3,121c0-5.4,4.4-9.8,9.8-9.8c5.4,0,9.8,4.4,9.8,9.8s-4.4,9.8-9.8,9.8l0,0
		C194.7,130.9,190.3,126.5,190.3,121C190.3,121.1,190.3,121,190.3,121z"/>
	<path class="st10" d="M168.5,61.2c0,2.9-3.3,3.9-3.3,6.2v0.2h3.2v1h-4.2v-0.8c0-3.1,3.3-3.7,3.3-6.4c0-1-0.3-1.5-1.1-1.5
		s-1.1,0.6-1.1,1.4V62h-1v-0.8c0-1.5,0.7-2.5,2.2-2.5S168.5,59.7,168.5,61.2z"/>
	<path class="st10" d="M173.7,61.2v0.3c0.1,0.9-0.4,1.7-1.2,2c0.8,0.3,1.3,1.1,1.2,2v0.7c0,1.5-0.7,2.4-2.2,2.4s-2.2-1-2.2-2.4v-0.7
		h1v0.7c0,0.9,0.4,1.4,1.1,1.4s1.1-0.5,1.1-1.5v-0.7c0-1-0.4-1.4-1.2-1.4h-0.6v-1h0.6c0.6,0,1.2-0.5,1.2-1.1c0-0.1,0-0.1,0-0.2v-0.4
		c0-1-0.4-1.5-1.1-1.5s-1.1,0.5-1.1,1.4v0.5h-1v-0.4c0-1.5,0.7-2.4,2.2-2.4S173.7,59.7,173.7,61.2z"/>
	<path class="st10" d="M175.8,61.9v1.3h-1v-1.3H175.8z M175.8,67.2v1.3h-1v-1.3H175.8z"/>
	<path class="st10" d="M178,62.8c0.3-0.5,0.8-0.8,1.4-0.8c1.2,0,1.8,0.9,1.8,2.3v1.9c0,1.5-0.7,2.4-2.2,2.4s-2.2-1-2.2-2.4v-0.7h1
		v0.7c0,0.9,0.4,1.4,1.1,1.4s1.1-0.5,1.1-1.4v-1.9c0-0.9-0.4-1.4-1.1-1.4c-0.6,0-1,0.4-1.1,0.9v0.1v0.2h-1l0.3-5.3h3.8v1h-2.8
		L178,62.8z"/>
	<path class="st10" d="M186.5,61.2v0.2h-1v-0.2c0-0.9-0.4-1.4-1.1-1.4s-1.2,0.5-1.2,1.6v2.2c0.2-0.6,0.9-1,1.6-1
		c1.2,0,1.8,0.9,1.8,2.3v1.5c0,1.5-0.7,2.4-2.2,2.4s-2.2-1-2.2-2.4v-4.9c0-1.5,0.7-2.5,2.2-2.5S186.5,59.7,186.5,61.2z M183.2,64.8
		v1.4c0,0.9,0.4,1.4,1.1,1.4s1.1-0.5,1.1-1.4v-1.4c0-0.9-0.4-1.4-1.1-1.4S183.2,63.9,183.2,64.8z"/>
	<rect x="288.8" y="61.6" class="st10" width="2.7" height="6.8"/>
	<rect x="292.4" y="60.3" class="st10" width="2.7" height="8.2"/>
	<rect x="296" y="59.3" class="st10" width="2.7" height="9.1"/>
	<rect x="299.6" y="57.6" class="st10" width="2.7" height="10.8"/>
	<path class="st10" d="M336,68.2h-16.3v-10H336V68.2z M320.6,67.3h14.5v-8.1h-14.5V67.3z"/>
	<rect x="321.9" y="60.1" class="st10" width="8.6" height="6.2"/>
	<rect x="335.4" y="62.1" class="st10" width="2" height="2.4"/>
	<path class="st10" d="M313.7,66c-0.1,0-0.2,0-0.3-0.1c-3.3-2-5.5-0.1-5.6-0.1c-0.2,0.2-0.6,0.2-0.8,0l0,0c-0.2-0.2-0.1-0.6,0.1-0.8
		c0.1-0.1,2.9-2.5,7-0.1c0.3,0.2,0.4,0.5,0.3,0.8C314.1,65.9,313.9,66.1,313.7,66L313.7,66z"/>
	<path class="st10" d="M314.9,64c-0.1,0-0.2,0-0.3-0.1c-4.8-2.8-8-0.1-8-0.1c-0.3,0.2-0.6,0.2-0.9-0.1c-0.2-0.3-0.2-0.6,0.1-0.9
		c0,0,3.9-3.4,9.5-0.1c0.3,0.2,0.4,0.6,0.2,0.8C315.3,63.9,315.1,64,314.9,64L314.9,64z"/>
	<path class="st10" d="M316,61.6c-0.1,0-0.2,0-0.3-0.1c-6.1-3.6-10.1-0.2-10.3-0.1c-0.3,0.2-0.6,0.2-0.9-0.1c-0.2-0.2-0.2-0.6,0-0.8
		l0,0c0,0,4.9-4.2,11.7-0.1c0.3,0.2,0.4,0.5,0.2,0.8C316.4,61.5,316.2,61.6,316,61.6z"/>
	<circle class="st10" cx="310.3" cy="67.1" r="1.5"/>
</g>
<g id="freepik--Graphics--inject-32">
	<path class="st10" d="M454.8,114.4c0.1,0.4,0.5,0.7,0.9,0.7c0.1,0,0.2,0,0.3,0c0.5-0.2,0.8-0.7,0.7-1.2c-0.7-2.5-1.8-4.9-3.2-7.1
		c-0.2-0.5-0.8-0.7-1.3-0.5s-0.7,0.8-0.5,1.3c0,0.1,0.1,0.2,0.2,0.2C453.1,109.8,454.1,112,454.8,114.4z"/>
	<path class="st10" d="M403.2,105.4c0.4,0.3,1,0.2,1.3-0.2c6-6.9,15-10.4,24.1-9.4s16.1,4,20.7,8.8c0.2,0.5,0.8,0.7,1.3,0.5
		s0.7-0.8,0.5-1.3c-0.1-0.2-0.2-0.3-0.4-0.4c-4.9-5.2-12.3-8.4-21.9-9.4c-9.8-1.2-19.5,2.6-25.8,10.1
		C402.7,104.5,402.8,105.1,403.2,105.4z"/>
	<path class="st10" d="M456.8,120.7c-5-0.9-7.2-6-8.9-10.2c-0.4-0.9-0.8-1.8-1.1-2.6c-2.2-4.4-11.7-9-20.6-8.3
		c-3.8,0.3-16.5,2.4-21.5,15.3c-2.3,5.8-2.3,12.1-2,16.4c0,0.5,0.4,0.9,0.9,0.9h0.1c0.5,0,0.9-0.5,0.9-1c-0.3-4.1-0.3-10.2,1.9-15.6
		c4.6-11.9,16.4-13.8,19.9-14.1c8.7-0.8,17.1,3.8,18.8,7.2c0.4,0.7,0.7,1.6,1.1,2.4c1.8,4.3,4.3,10.2,10.3,11.3
		c0.5,0.1,1-0.3,1.1-0.8C457.7,121.3,457.4,120.8,456.8,120.7C456.9,120.7,456.9,120.7,456.8,120.7z"/>
	<path class="st10" d="M404.5,138.8c0.1,0,0.1,0,0.2,0c0.5-0.1,0.8-0.6,0.7-1.1c0,0-0.2-1-0.5-2.7c-0.2-0.5-0.8-0.7-1.3-0.5
		c-0.3,0.1-0.5,0.4-0.6,0.8c0.3,1.7,0.5,2.8,0.5,2.8C403.7,138.5,404.1,138.8,404.5,138.8z"/>
	<path class="st10" d="M456.5,128.6l-10.2-7.5c-0.2-1.1-0.6-2.2-1-3.3c-1-2.9-5.5-10.5-13.2-11.6c-4.5-0.7-9.2-0.1-13.4,1.7
		c-0.5,0.2-0.7,0.7-0.5,1.2s0.7,0.7,1.2,0.5h0.1c3.9-1.7,8.2-2.2,12.4-1.6c6.8,0.9,10.8,8,11.7,10.4c0.4,1,0.7,2.1,0.9,3.2
		c0,0.3,0.1,0.6,0.4,0.8l10.5,7.7c0.2,0.1,0.4,0.2,0.6,0.2c0.5-0.1,0.9-0.6,0.9-1.1C456.8,128.9,456.7,128.7,456.5,128.6
		L456.5,128.6z"/>
	<path class="st10" d="M411.4,134.8c-1.6-5.6-2.7-13.5,1.6-19.9c1-1.4,2.2-2.7,3.7-3.7c0.4-0.3,0.5-0.9,0.2-1.3s-0.9-0.5-1.3-0.2
		c-1.6,1.1-3,2.6-4.2,4.2c-3.8,5.5-4.4,13-1.9,21.5c1.7,5.8-6.6,9-6.7,9.1c-0.5,0.3-0.6,0.9-0.4,1.4c0.1,0.3,0.4,0.4,0.7,0.5
		c0.1,0,0.2,0,0.3-0.1C407.1,144.9,413.2,140.8,411.4,134.8z"/>
	<path class="st10" d="M455.7,135.8c-0.1-0.1-10.1-6.7-13.2-10.8c-1.8-2.3-1.9-3.1-2.1-3.9c-0.3-1.1-0.7-2.1-1.3-3
		c-2-3.3-6.8-6.8-13.7-5.7c-6.6,1.1-10.5,6.2-10.5,13.7c0,3.1,0.2,5.8,0.5,8.4c0.4,3.2,0.5,6.4,0.3,9.5c-0.4,5.2-7.6,7.1-7.8,7.1
		c-0.5,0.2-0.8,0.7-0.6,1.2c0.1,0.4,0.4,0.6,0.8,0.7c0.1,0,0.2,0,0.2,0c0.4-0.1,8.6-2.2,9.2-8.8c0.2-3.3,0.1-6.6-0.3-9.9
		c-0.2-2.6-0.5-5.2-0.5-8.2c0-6.6,3.3-10.9,8.9-11.8c5.9-1,10,2,11.8,4.8c0.5,0.8,0.9,1.6,1.1,2.5c0.2,1,0.5,2,2.5,4.6
		c3.3,4.3,13.3,10.9,13.7,11.2c0.4,0.3,1,0.3,1.3-0.1c0.3-0.4,0.3-1-0.1-1.3C455.8,135.9,455.7,135.9,455.7,135.8L455.7,135.8z"/>
	<path class="st10" d="M427.2,136.2l-0.5-0.6c-3.7-4.6-5.7-7.1-2.7-12c1-1.7,2.2-2.6,3.5-2.5c1.9,0.1,4,2.1,5.6,5.2
		c0.9,1.7,3.1,4.4,6.9,8.2c0.2,0.5,0.9,0.7,1.3,0.4c0.5-0.2,0.7-0.9,0.4-1.3c-0.1-0.2-0.2-0.3-0.4-0.4c-4.5-4.5-6-6.7-6.5-7.7
		c-1.9-3.8-4.6-6.1-7.2-6.2c-1.4-0.1-3.4,0.5-5.2,3.4c-3.7,6.1-1,9.5,2.8,14.2l0.5,0.6c4,5,17.5,16.1,18.1,16.6
		c0.2,0.1,0.4,0.2,0.6,0.2c0.3,0,0.6-0.1,0.7-0.4c0.3-0.4,0.3-1-0.1-1.3C444.9,152.4,431.1,141.1,427.2,136.2z"/>
	<path class="st10" d="M444.9,136.6c-0.5-0.2-1.1,0-1.3,0.5c-0.1,0.3-0.1,0.6,0,0.9c4,3.8,7.7,7,7.7,7c0.4,0.4,1,0.3,1.3-0.1
		c0.4-0.4,0.3-1-0.1-1.3l0,0C452.5,143.6,448.9,140.4,444.9,136.6z"/>
	<path class="st10" d="M448.8,147.8c-0.1-0.1-12.7-10-15.8-14.1c-1.9-2.5-3.3-5.2-4.3-8.2c-0.1-0.5-0.6-0.8-1.1-0.7
		c-0.5,0.1-0.8,0.6-0.7,1.1v0.1c1,3.2,2.6,6.1,4.6,8.8c3.3,4.3,15.6,14,16.1,14.4c0.2,0.1,0.4,0.2,0.6,0.2c0.3,0,0.6-0.1,0.8-0.4
		C449.3,148.7,449.2,148.1,448.8,147.8L448.8,147.8z"/>
	<path class="st10" d="M428,151.5c-3.6,2.2-4.4,9.4-4.4,9.7c0,0.5,0.3,1,0.8,1.1h0.1c0.5,0,0.9-0.4,0.9-0.9c0.2-1.8,1.2-6.8,3.5-8.3
		c1.9-1.2,6,2.7,7.7,4.8c0.2,0.5,0.8,0.8,1.3,0.6s0.8-0.8,0.6-1.3c-0.1-0.2-0.2-0.4-0.4-0.5C437.5,155.9,431.8,149.1,428,151.5z"/>
	<path class="st10" d="M421.3,140.4c-0.5,0.2-0.8,0.7-0.7,1.2c0.6,3.1,0.4,6.2-0.7,9.1c-1,2.6-2.9,4.8-5.4,5.9
		c-0.5,0.3-0.6,0.9-0.3,1.4c0.1,0.2,0.4,0.4,0.7,0.5c0.1,0,0.2,0,0.3-0.1c3-1.4,5.4-3.9,6.5-7c1.3-3.3,1.5-6.9,0.8-10.3
		C422.3,140.6,421.8,140.3,421.3,140.4z"/>
	<path class="st10" d="M418.2,91c5.9-1.4,14.8-2.3,23.9,1.6c0.1,0.1,0.2,0.1,0.4,0.1c0.5-0.1,0.9-0.6,0.8-1.2c0-0.3-0.2-0.5-0.4-0.7
		c-9.5-4.1-18.9-3.2-25.1-1.7c-0.5,0.1-0.8,0.6-0.7,1.2C417.2,90.8,417.7,91.1,418.2,91z"/>
	<path class="st10" d="M411.5,93.1c0.1,0,0.3,0,0.4-0.1c0.8-0.4,1.6-0.7,2.5-1c0.5-0.2,0.7-0.7,0.6-1.2c-0.2-0.5-0.7-0.8-1.2-0.6
		l0,0c-0.9,0.3-1.8,0.6-2.7,1c-0.5,0.3-0.6,0.9-0.3,1.4C411,92.8,411.2,93,411.5,93.1L411.5,93.1z"/>
	<path class="st11" d="M118.9,195.1H44.5c-4,0-7.3-3.3-7.3-7.3l0,0c0-4.1,3.3-7.3,7.3-7.3h74.4c4.1,0,7.3,3.3,7.3,7.3l0,0
		C126.3,191.8,123,195.1,118.9,195.1z"/>
	<path class="st10" d="M47.1,187l-0.7-4.4h2.4l-0.7,4.4l3.9-2l0.7,2.3l-4.3,0.7l3.1,3.1l-1.9,1.4l-2-3.9l-2,3.9l-1.9-1.4l3-3.1
		l-4.3-0.7l0.7-2.3L47.1,187z"/>
	<path class="st10" d="M64.2,187l-0.7-4.4h2.4l-0.7,4.4l3.9-2l0.7,2.3l-4.3,0.7l3.1,3.1l-1.9,1.4l-2-3.9l-2,3.9l-1.9-1.4l3.1-3.1
		l-4.3-0.7l0.7-2.3L64.2,187z"/>
	<path class="st10" d="M81.3,187l-0.7-4.4H83l-0.7,4.4l3.9-2l0.7,2.3l-4.3,0.7l3.1,3.1l-1.9,1.4l-2-3.9l-2,3.9l-1.9-1.4L81,188
		l-4.3-0.7l0.7-2.3L81.3,187z"/>
	<path class="st10" d="M98.4,187l-0.7-4.4h2.4l-0.7,4.4l3.9-2l0.7,2.3l-4.3,0.7l3.1,3.1l-1.9,1.4l-2-3.9l-2,3.9l-1.9-1.4l3-3.1
		l-4.3-0.7l0.7-2.3L98.4,187z"/>
	<path class="st10" d="M115.5,187l-0.7-4.4h2.4l-0.7,4.4l3.9-2l0.7,2.3l-4.3,0.7l3.1,3.1l-1.9,1.4l-2-3.9l-2,3.9l-1.9-1.4l3-3.1
		l-4.3-0.7l0.7-2.3L115.5,187z"/>
	<path class="st8" d="M416.5,241.2h22.8c1.8,0,3.2,1.5,3.2,3.2v22.8c0,1.8-1.5,3.2-3.2,3.2h-22.8c-1.8,0-3.2-1.5-3.2-3.2v-22.8
		C413.3,242.6,414.8,241.2,416.5,241.2z"/>
	<path class="st8" d="M431.9,253.1c0-2.2-1.8-4-4-4s-4,1.8-4,4c0,1.6,1,3.1,2.4,3.7v7.2h3.1v-7.2C431,256.2,431.9,254.7,431.9,253.1
		z"/>
	<path class="st8" d="M440,241h-4v-9.6c0-3.2-2.6-5.8-5.8-5.8h-4.8c-3.2,0-5.8,2.6-5.8,5.8v9.6h-4v-9.6c0-5.4,4.4-9.8,9.8-9.8h4.8
		c5.4,0,9.8,4.4,9.8,9.8V241z"/>
	<path class="st8" d="M70,111.8h22.8c1.8,0,3.2,1.5,3.2,3.2v22.8c0,1.8-1.5,3.2-3.2,3.2H70c-1.8,0-3.2-1.5-3.2-3.2V115
		C66.7,113.2,68.2,111.8,70,111.8z"/>
	<path class="st8" d="M85.3,123.7c0-2.2-1.8-4-4-4s-4,1.8-4,4c0,1.6,1,3.1,2.4,3.7v7.1h3.1v-7.1C84.4,126.7,85.3,125.3,85.3,123.7z"
		/>
	<path class="st8" d="M93.4,111.6h-4V102c0-3.2-2.6-5.8-5.8-5.8h-4.8c-3.2,0-5.8,2.6-5.8,5.8v9.6h-4V102c0-5.4,4.4-9.8,9.8-9.8h4.8
		c5.4,0,9.8,4.4,9.8,9.8V111.6z"/>
	<path class="st12" d="M391.9,329c0-2.7-2.2-4.8-4.8-4.8c-2.7,0-4.8,2.2-4.8,4.8c0,2.7,2.2,4.8,4.8,4.8l0,0
		C389.7,333.8,391.9,331.7,391.9,329L391.9,329z"/>
	<path class="st12" d="M432,329c0-2.7-2.2-4.8-4.8-4.8c-2.7,0-4.8,2.2-4.8,4.8c0,2.7,2.2,4.8,4.8,4.8S432,331.7,432,329L432,329z"/>
	<circle class="st12" cx="467.3" cy="329" r="4.8"/>
	<path class="st12" d="M391.9,359.5c0-2.7-2.2-4.8-4.8-4.8c-2.7,0-4.8,2.2-4.8,4.8c0,2.7,2.2,4.8,4.8,4.8l0,0
		C389.7,364.3,391.9,362.2,391.9,359.5L391.9,359.5z"/>
	<path class="st12" d="M432,359.5c0-2.7-2.2-4.8-4.8-4.8c-2.7,0-4.8,2.2-4.8,4.8c0,2.7,2.2,4.8,4.8,4.8S432,362.2,432,359.5
		L432,359.5z"/>
	<path class="st12" d="M472.1,359.5c0-2.7-2.2-4.8-4.8-4.8c-2.7,0-4.8,2.2-4.8,4.8c0,2.7,2.2,4.8,4.8,4.8
		C470,364.3,472.1,362.2,472.1,359.5L472.1,359.5z"/>
	<path class="st12" d="M391.9,390c0-2.7-2.2-4.8-4.8-4.8c-2.7,0-4.8,2.2-4.8,4.8c0,2.7,2.2,4.8,4.8,4.8l0,0
		C389.7,394.8,391.9,392.7,391.9,390L391.9,390z"/>
	<path class="st12" d="M432,390c0-2.7-2.2-4.8-4.8-4.8c-2.7,0-4.8,2.2-4.8,4.8c0,2.7,2.2,4.8,4.8,4.8S432,392.7,432,390L432,390z"/>
	<path class="st12" d="M472.1,390c0-2.7-2.2-4.8-4.8-4.8c-2.7,0-4.8,2.2-4.8,4.8c0,2.7,2.2,4.8,4.8,4.8S472.1,392.7,472.1,390
		L472.1,390z"/>
</g>
<g id="freepik--Plant--inject-32">
	<path class="st13" d="M103.4,257c0,0-13.2-7.4-14.2,9.3s-3.4,154.9-3.4,154.9"/>
	<path class="st13" d="M82.3,267.8c0,0,10.8,54,5.9,152"/>
	<path class="st0" d="M93,260.4c0,0-5.1,3.2-8-0.5s2-10.5-2.3-13.4S71.1,248,71.1,248s5.7,1.7,5.5,4.8s-2.9,4.3-3.3,2.9
		s-3.1-8.1-7.7-5.3c-2.7,1.6-4.6,4.2-5.3,7.2c0,0,10.7-1.1,11.3,2.9s-4.4-0.7-8.8-1s-8.4,0.4-8.1,3.1c0.1,2.4,0,4.7-0.4,7.1
		c2.4-2,5.5-3.1,8.6-3c4.8,0.3,4.7,3.4,0.3,3.1s-8.2,4-8.2,4s4,6.9,9.1,10.3s7,2.2,7.6-0.4s-0.8-9.4,2.3-9.2s-5.2,11.7-1.2,12.3
		s7.1-0.5,8.2-3.1l1-2.6c0,0-1.4-6.7-0.8-9.4s1.3,0.1,2,3.2s1.1,10.7,2.5,10.3s5.7-5.9,6.7-8s-5.7-8.8-5.6-10.1s5.3,1.2,6,2.6
		s1.6,3.2,1.6,3.2s3.2-2,3.2-8.2S93,260.4,93,260.4z"/>
	<path class="st14" d="M93,260.4c0,0-5.1,3.2-8-0.5s2-10.5-2.3-13.4S71.1,248,71.1,248s5.7,1.7,5.5,4.8s-2.9,4.3-3.3,2.9
		s-3.1-8.1-7.7-5.3c-2.7,1.6-4.6,4.2-5.3,7.2c0,0,10.7-1.1,11.3,2.9s-4.4-0.7-8.8-1s-8.4,0.4-8.1,3.1c0.1,2.4,0,4.7-0.4,7.1
		c2.4-2,5.5-3.1,8.6-3c4.8,0.3,4.7,3.4,0.3,3.1s-8.2,4-8.2,4s4,6.9,9.1,10.3s7,2.2,7.6-0.4s-0.8-9.4,2.3-9.2s-5.2,11.7-1.2,12.3
		s7.1-0.5,8.2-3.1l1-2.6c0,0-1.4-6.7-0.8-9.4s1.3,0.1,2,3.2s1.1,10.7,2.5,10.3s5.7-5.9,6.7-8s-5.7-8.8-5.6-10.1s5.3,1.2,6,2.6
		s1.6,3.2,1.6,3.2s3.2-2,3.2-8.2S93,260.4,93,260.4z"/>
	<path class="st11" d="M67.3,274.9c3.3-4.1,8.2-9.6,12.2-12.2"/>
	<path class="st11" d="M63.5,279.9c0,0,0.9-1.2,2.2-2.9"/>
	<path class="st11" d="M81.7,263.7c0,0,4.9,6.9,5.8,14.1"/>
	<path class="st11" d="M76.1,267.8c0,0,1.4-0.8,0.9,8"/>
	<path class="st11" d="M79.7,259.6c0,0,2.8-2.5,1.3-7.4"/>
	<line class="st11" x1="75.9" y1="263.8" x2="73.9" y2="260.1"/>
	<path class="st11" d="M71.7,267.5c0,0-6.4-4.8-10.3-5"/>
	<path class="st0" d="M111,247.3c0,0-0.2,7.3-5.9,7.6s-9.2-9.1-15-6.8s-6.4,12.7-6.4,12.7s5.5-4.5,8.5-2.2s2.3,5.8,0.7,5.3
		s-10.3-2.5-10.6,4c-0.2,3.8,1.1,7.5,3.6,10.2c0,0,6.2-11.5,10.6-9.4s-3.7,3.9-7,8.2s-5.4,8.7-2.5,10.3c2.4,1.5,4.7,3.3,6.8,5.2
		c0,0-0.8-6,2.8-10.7s6.6-2.4,3.3,1.9s-1.6,10.9-1.6,10.9s9.6,0.7,16.5-2.1s6.9-5.5,4.7-7.9s-9.9-5.6-7.6-8.6s8.2,13.1,11.6,9.6
		s4.4-7.4,2.5-10.2l-1.9-2.8c0,0-7.7-3.2-9.9-5.6s1-1.3,4.6,0.2s11.5,6.1,12,4.5s-2-9.7-3.5-12.1s-12.6-0.3-13.9-1.3
		s4.8-4.4,6.7-4.3c1.4,0.1,2.9,0.3,4.3,0.6c0,0,0.2-4.6-6.1-8.8S111,247.3,111,247.3z"/>
	<path class="st15" d="M111,247.3c0,0-0.2,7.3-5.9,7.6s-9.2-9.1-15-6.8s-6.4,12.7-6.4,12.7s5.5-4.5,8.5-2.2s2.3,5.8,0.7,5.3
		s-10.3-2.5-10.6,4c-0.2,3.8,1.1,7.5,3.6,10.2c0,0,6.2-11.5,10.6-9.4s-3.7,3.9-7,8.2s-5.4,8.7-2.5,10.3c2.4,1.5,4.7,3.3,6.8,5.2
		c0,0-0.8-6,2.8-10.7s6.6-2.4,3.3,1.9s-1.6,10.9-1.6,10.9s9.6,0.7,16.5-2.1s6.9-5.5,4.7-7.9s-9.9-5.6-7.6-8.6s8.2,13.1,11.6,9.6
		s4.4-7.4,2.5-10.2l-1.9-2.8c0,0-7.7-3.2-9.9-5.6s1-1.3,4.6,0.2s11.5,6.1,12,4.5s-2-9.7-3.5-12.1s-12.6-0.3-13.9-1.3
		s4.8-4.4,6.7-4.3c1.4,0.1,2.9,0.3,4.3,0.6c0,0,0.2-4.6-6.1-8.8S111,247.3,111,247.3z"/>
	<path class="st11" d="M108.1,282.9c-1.8-6.1-4-14.7-3.9-20.6"/>
	<path class="st11" d="M110.4,290.1c0,0-0.6-1.6-1.4-4.2"/>
	<path class="st11" d="M106.6,260.9c0,0,10.3-0.2,18,3.8"/>
	<path class="st11" d="M107,269.2c0,0,0.1-1.9,8.6,4.6"/>
	<path class="st11" d="M101.2,260c0,0-0.6-4.5-6.6-6.4"/>
	<line class="st11" x1="102.8" y1="266.7" x2="97.8" y2="266.2"/>
	<path class="st11" d="M103.7,273.5c0,0-9.2,3.1-12.1,6.9"/>
	<path class="st13" d="M50,295.8c0,0,28.9,49,28.4,123.1"/>
	<path class="st0" d="M85.7,290.7c0,0-0.9,8.4-7.5,8.3s-9.8-11.4-16.7-9.3s-8.6,14-8.6,14s6.8-4.7,10-1.8c3.2,2.9,2.1,6.9,0.3,6.1
		s-11.6-3.8-12.5,3.7c-0.6,4.3,0.5,8.7,3.2,12.1c0,0,8.1-12.7,13.1-9.8s-4.6,4.2-8.8,8.8s-7,9.5-3.8,11.6c2.7,2,5.1,4.2,7.3,6.7
		c0,0-0.3-7,4.3-12s7.8-2.1,3.6,2.5S66.7,344,66.7,344s11,1.7,19.3-0.9s8.5-5.7,6.2-8.6s-10.9-7.4-8-10.6s8.2,15.9,12.4,12.1
		s5.8-8.2,3.8-11.6l-1.9-3.4c0,0-8.6-4.4-10.9-7.4s1.3-1.4,5.3,0.6s12.7,8.2,13.5,6.4s-1.3-11.4-2.8-14.4s-14.6-1.5-15.9-2.8
		s5.9-4.7,8.1-4.3c1.6,0.3,3.3,0.6,4.9,1.1c0,0,0.6-5.3-6.2-10.7S85.7,290.7,85.7,290.7z"/>
	<path class="st14" d="M85.7,290.7c0,0-0.9,8.4-7.5,8.3s-9.8-11.4-16.7-9.3s-8.6,14-8.6,14s6.8-4.7,10-1.8c3.2,2.9,2.1,6.9,0.3,6.1
		s-11.6-3.8-12.5,3.7c-0.6,4.3,0.5,8.7,3.2,12.1c0,0,8.1-12.7,13.1-9.8s-4.6,4.2-8.8,8.8s-7,9.5-3.8,11.6c2.7,2,5.1,4.2,7.3,6.7
		c0,0-0.3-7,4.3-12s7.8-2.1,3.6,2.5S66.7,344,66.7,344s11,1.7,19.3-0.9s8.5-5.7,6.2-8.6s-10.9-7.4-8-10.6s8.2,15.9,12.4,12.1
		s5.8-8.2,3.8-11.6l-1.9-3.4c0,0-8.6-4.4-10.9-7.4s1.3-1.4,5.3,0.6s12.7,8.2,13.5,6.4s-1.3-11.4-2.8-14.4s-14.6-1.5-15.9-2.8
		s5.9-4.7,8.1-4.3c1.6,0.3,3.3,0.6,4.9,1.1c0,0,0.6-5.3-6.2-10.7S85.7,290.7,85.7,290.7z"/>
	<path class="st11" d="M78.9,331.5c-1.5-7.2-3.3-17.4-2.6-24.1"/>
	<path class="st11" d="M81,340.1c0,0-0.5-2-1.3-5"/>
	<path class="st11" d="M79.3,305.9c0,0,11.9,0.8,20.5,6"/>
	<path class="st11" d="M78.9,315.6c0,0,0.3-2.2,9.5,6.1"/>
	<path class="st11" d="M73.1,304.5c0,0-0.3-5.3-7-8"/>
	<line class="st11" x1="74.4" y1="312.3" x2="68.6" y2="311.3"/>
	<path class="st11" d="M74.8,320.2c0,0-10.8,2.7-14.6,6.8"/>
	<path class="st0" d="M85.7,360.8c0,0-0.9,8.4-7.5,8.3s-9.8-11.4-16.7-9.3s-8.6,14-8.6,14s6.8-4.7,10-1.8c3.2,2.9,2.1,6.9,0.3,6.1
		s-11.6-3.8-12.5,3.7c-0.6,4.3,0.5,8.7,3.2,12.1c0,0,8.1-12.7,13.1-9.8s-4.6,4.2-8.8,8.8s-7,9.5-3.8,11.6c2.7,2,5.1,4.2,7.3,6.7
		c0,0-0.3-7,4.3-12s7.8-2.1,3.6,2.5s-2.9,12.4-2.9,12.4s11,1.7,19.3-0.9s8.5-5.7,6.2-8.6s-10.9-7.4-8-10.6s8.2,15.9,12.4,12.1
		s5.8-8.2,3.8-11.6l-1.9-3.4c0,0-8.6-4.4-10.9-7.4s1.3-1.4,5.3,0.6s12.7,8.2,13.5,6.4s-1.4-11.3-2.9-14.4s-14.6-1.5-15.9-2.8
		s5.9-4.7,8.1-4.3c1.6,0.3,3.3,0.6,4.9,1.1c0,0,0.6-5.3-6.2-10.7S85.7,360.8,85.7,360.8z"/>
	<path class="st14" d="M85.7,360.8c0,0-0.9,8.4-7.5,8.3s-9.8-11.4-16.7-9.3s-8.6,14-8.6,14s6.8-4.7,10-1.8c3.2,2.9,2.1,6.9,0.3,6.1
		s-11.6-3.8-12.5,3.7c-0.6,4.3,0.5,8.7,3.2,12.1c0,0,8.1-12.7,13.1-9.8s-4.6,4.2-8.8,8.8s-7,9.5-3.8,11.6c2.7,2,5.1,4.2,7.3,6.7
		c0,0-0.3-7,4.3-12s7.8-2.1,3.6,2.5s-2.9,12.4-2.9,12.4s11,1.7,19.3-0.9s8.5-5.7,6.2-8.6s-10.9-7.4-8-10.6s8.2,15.9,12.4,12.1
		s5.8-8.2,3.8-11.6l-1.9-3.4c0,0-8.6-4.4-10.9-7.4s1.3-1.4,5.3,0.6s12.7,8.2,13.5,6.4s-1.4-11.3-2.9-14.4s-14.6-1.5-15.9-2.8
		s5.9-4.7,8.1-4.3c1.6,0.3,3.3,0.6,4.9,1.1c0,0,0.6-5.3-6.2-10.7S85.7,360.8,85.7,360.8z"/>
	<path class="st11" d="M78.9,401.6c-1.5-7.2-3.3-17.4-2.6-24.1"/>
	<path class="st11" d="M81,410.2c0,0-0.5-2-1.3-5"/>
	<path class="st11" d="M79.3,376c0,0,11.9,0.8,20.5,6"/>
	<path class="st11" d="M78.9,385.7c0,0,0.3-2.2,9.5,6.1"/>
	<path class="st11" d="M73.1,374.5c0,0-0.3-5.3-7-8"/>
	<line class="st11" x1="74.4" y1="382.4" x2="68.6" y2="381.3"/>
	<path class="st11" d="M74.8,390.3c0,0-10.8,2.7-14.6,6.8"/>
	<path class="st13" d="M61.3,354.1c0,0,18.6,44.1,20.6,65.2L78,318.8"/>
	<path class="st13" d="M106.4,343.8c-24.5-4.4-24.5,75.5-24.5,75.5"/>
	<path class="st13" d="M84.8,418.8c0,0-14.2-133.4,27-133.4"/>
	<path class="st0" d="M97,340.8c-3.3-3.8-10.5-3.8-14.7,5.9s-0.4,8-0.4,8s8-2.5,13-4.2s11.7-5.9,12.1-3.4s-3.3,5-7.9,5.9
		s-16.7,4.2-15.5,6.7s4.2,10,4.2,10c3.6-3,7.4-5.8,11.3-8.4c5.4-3.4,8.8-2.1,5.9,1.7s-11.3,8-9.6,13s11.7,11.3,11.7,11.3
		s1.3-10.5,4.2-13.8s2.9,0.4,2.1,6.3c-0.4,2.5-0.7,5-0.8,7.5l11.7,4.2c0,0,4.2-6.3,6.3-8.4l2.1-2.1c0,0-9.2-8-9.6-13s6.3,0,8.4,0.8
		s5.4,6.7,5.4,6.7s2.1-9.6,2.5-13l0.4-3.4c0,0-8.8-3.4-12.1-3.4s-5,2.5-5-0.8s3.3-5.5,7.1-5c3.4,0.6,6.8,1.4,10.1,2.5
		c0,0,2.5-2.1,1.7-8.4s-2.9-6.3-7.9-4.6s-8.4,5.4-12.1,5.4s-1.7-4.6,0.8-5.9s8.8-3.8,10-4.2s-6.7-6.3-10.9-7.1s-9.6,2.1-9.2,6.3
		C112.9,342.9,100.4,344.6,97,340.8z"/>
	<path class="st11" d="M124,383.9c0.1,1.3,0.2,2.5,0.3,3.8"/>
	<path class="st11" d="M115.6,353.9c3.7,8.3,6.3,17,7.9,25.9"/>
	<path class="st11" d="M114.1,350.5c-2.1-4.5-3.6-7.2-3.6-7.2c2.3-1.1,4.2-2.8,5.4-5c1-2,2.4-3.7,4.2-5"/>
	<path class="st11" d="M95.8,357.6c0,0,15.1-6.3,15.1-5"/>
	<path class="st11" d="M119.2,349.6c0,0,6.7-3.3,12.6-3.3"/>
	<path class="st11" d="M116.7,359.7c-2.9,2.4-5.6,5-8,8c-2.4,2.9-4.4,6.1-5.9,9.6"/>
	<path class="st11" d="M121.3,361.3c0,0,8.8-2.5,13.4,1.7"/>
	<path class="st0" d="M137.2,304.8c-4.6-2.7-9.6-2.8-12.1-5.6s2.4-4.3,5-3.2c2.6,1.1,8.6,4.2,9.8,4.8s0.4-9.2-1.8-12.9
		s-7.9-5.9-10.8-2.8c-6.1,6.4-15.6-2-14.9-7s-4-10.4-14-7.2s-6.3,4.9-6.3,4.9s7.1,4.4,11.7,7s12.1,5,10.5,7s-6,0.8-9.6-2.2
		s-14.1-9.9-15.2-7.3s-4.8,9.8-4.8,9.8c4.6,0.7,9.2,1.7,13.7,3c6.1,1.9,7.3,5.3,2.6,5.5s-13.4-3.3-16.1,1.2S84,316.1,84,316.1
		s8.7-5.9,13.2-5.9s1.6,2.5-3.4,5.7c-2.2,1.3-4.2,2.8-6.2,4.3l4.5,11.6c0,0,7.5-1,10.4-0.8l3,0.2c0,0,0-12.2,3.5-15.8
		s4.1,4.7,4.9,6.9s-1.5,8.5-1.5,8.5s8.6-4.7,11.4-6.6l2.8-1.9c0,0-3.2-8.8-5.4-11.4s-5.2-2.1-2.7-4.3s6.3-1,8.4,2.1
		c1.8,2.9,3.4,6,4.7,9.2c0,0,3.2,0.5,7.4-4.2S141.8,307.5,137.2,304.8z M97.6,318.2c-3.3-1.7,4.6-5,4.6-5
		C105.2,312.7,101,319.9,97.6,318.2z M103.3,302.5c-1.4-0.7,2.8-2.1,2.8-2.1C112.3,301.6,104.7,303.3,103.3,302.5z"/>
	<path class="st11" d="M97.5,326.7c-0.9,0.9-1.8,1.8-2.7,2.7"/>
	<path class="st11" d="M114.7,300.7c-3.8,8.2-8.7,15.9-14.4,23"/>
	<path class="st11" d="M116.3,297.3c2-4.5,3-7.5,3-7.5c2.3,1,4.9,1.3,7.4,0.8c2.1-0.6,4.4-0.6,6.5-0.1"/>
	<path class="st11" d="M98.9,288.1c0,0,14.6,7.3,13.7,8.1"/>
	<path class="st11" d="M120.3,300.6c0,0,6.9,2.9,10.8,7.3"/>
	<path class="st11" d="M111.1,305.3c-3.7-0.6-7.5-0.9-11.2-0.8c-3.8,0-7.5,0.7-11.1,1.9"/>
	<path class="st11" d="M112.8,309.9c0,0,7.7,5,7.5,11.2"/>
	<path class="st0" d="M72.2,362.8c-3.7-2.2-7.7-2.2-9.7-4.5s1.9-3.5,4-2.6s6.9,3.4,7.8,3.9s0.3-7.4-1.4-10.4s-6.3-4.7-8.7-2.3
		c-4.9,5.1-12.5-1.6-12-5.6s-3.2-8.3-11.3-5.8s-5,3.9-5,3.9s5.7,3.5,9.4,5.7s9.7,4,8.4,5.6s-4.8,0.6-7.8-1.8s-11.4-8-12.2-5.9
		s-3.9,7.8-3.9,7.8c3.7,0.6,7.4,1.4,11.1,2.5c4.9,1.5,5.9,4.2,2.1,4.4s-10.8-2.7-13,1s-0.7,13.1-0.7,13.1s7-4.8,10.6-4.7
		s1.3,2-2.7,4.6c-1.7,1.1-3.4,2.2-5,3.5l3.6,9.3c2.8-0.4,5.6-0.6,8.4-0.6l2.4,0.2c0,0,0-9.8,2.8-12.7s3.3,3.8,3.9,5.5
		s-1.2,6.8-1.2,6.8s7-3.8,9.2-5.3l2.2-1.5c0,0-2.6-7.1-4.4-9.1s-4.2-1.8-2.2-3.5s5.1-0.8,6.8,1.7c1.5,2.4,2.7,4.9,3.8,7.4
		c0,0,2.6,0.4,6-3.4S75.9,364.9,72.2,362.8z M40.3,373.5c-2.7-1.3,3.7-4,3.7-4C46.4,369.2,43,374.9,40.3,373.5z M44.9,361
		c-1.2-0.6,2.3-1.7,2.3-1.7C52.1,360.2,46,361.5,44.9,361z"/>
	<path class="st11" d="M40.3,380.4c-0.7,0.7-1.4,1.5-2.2,2.1"/>
	<path class="st11" d="M54.1,359.5c-3.1,6.6-7,12.8-11.6,18.5"/>
	<path class="st11" d="M55.3,356.8c1.6-3.6,2.5-6,2.5-6c1.9,0.8,3.9,1.1,5.9,0.7c1.7-0.5,3.5-0.5,5.3-0.1"/>
	<path class="st11" d="M41.4,349.4c0,0,11.8,5.8,11,6.5"/>
	<path class="st11" d="M58.6,359.4c0,0,5.6,2.3,8.7,5.9"/>
	<path class="st11" d="M51.2,363.2c-3-0.5-6-0.7-9-0.6c-3,0-6.1,0.5-8.9,1.5"/>
	<path class="st11" d="M52.6,366.9c0,0,6.2,4,6,9"/>
	<path class="st0" d="M57.2,293.7c0,0-4.6,3.4-7.5,0s1.3-10-2.9-12.5s-10.9,2.1-10.9,2.1s5.4,1.3,5.4,4.2s-2.5,4.2-2.9,2.9
		s-3.3-7.5-7.5-4.6c-2.4,1.6-4.1,4.2-4.6,7.1c0,0,10-1.7,10.9,2.1s-4.2-0.4-8.4-0.4s-8,0.8-7.5,3.4c0.2,2.2,0.2,4.5,0,6.7
		c2.2-2,5-3.2,8-3.4c4.6,0,4.6,2.9,0.4,2.9s-7.5,4.2-7.5,4.2s4.2,6.3,9.2,9.2s6.7,1.7,7.1-0.8s-1.3-8.8,1.7-8.8s-4.2,11.3-0.4,11.7
		s6.7-0.8,7.5-3.4l0.8-2.5c0,0-1.7-6.3-1.3-8.8s1.3,0,2.1,2.9s1.7,10,2.9,9.6s5-5.9,5.9-8s-5.9-8-5.9-9.2s5,0.8,5.9,2.1
		c0.6,0.9,1.2,1.9,1.7,2.9c0,0,2.9-2.1,2.5-8S57.2,293.7,57.2,293.7z"/>
	<path class="st11" d="M33.8,308.8c2.9-4,7.2-9.5,10.9-12.3"/>
	<path class="st11" d="M30.5,313.8c0,0,0.7-1.2,1.9-2.9"/>
	<path class="st11" d="M46.8,297.4c0,0,5,6.3,6.3,13"/>
	<path class="st11" d="M41.8,301.6c0,0,1.3-0.8,1.3,7.5"/>
	<path class="st11" d="M44.7,293.7c0,0,2.5-2.5,0.8-7.1"/>
	<line class="st11" x1="41.3" y1="297.9" x2="39.2" y2="294.5"/>
	<path class="st11" d="M37.6,301.6c0,0-6.3-4.2-10-4.2"/>
	<path class="st0" d="M98,382.6c0,0-4.6,3.4-7.5,0s1.3-10-2.9-12.6s-10.9,2.1-10.9,2.1s5.4,1.3,5.4,4.2s-2.5,4.2-2.9,2.9
		s-3.3-7.5-7.5-4.6c-2.4,1.6-4.1,4.2-4.6,7.1c0,0,10-1.7,10.9,2.1s-4.2-0.4-8.4-0.4s-8,0.8-7.5,3.3c0.2,2.2,0.2,4.5,0,6.7
		c2.2-2,5-3.2,8-3.4c4.6,0,4.6,2.9,0.4,2.9s-7.5,4.2-7.5,4.2s4.2,6.3,9.2,9.2s6.7,1.7,7.1-0.8s-1.3-8.8,1.7-8.8s-4.2,11.3-0.4,11.7
		s6.7-0.8,7.5-3.4l0.8-2.5c0,0-1.7-6.3-1.3-8.8s1.3,0,2.1,2.9s1.7,10,2.9,9.6s5-5.9,5.8-8s-5.8-8-5.8-9.2s5,0.8,5.8,2.1
		c0.6,0.9,1.2,1.9,1.7,2.9c0,0,2.9-2.1,2.5-8S98,382.6,98,382.6z"/>
	<path class="st11" d="M74.6,397.8c2.9-4,7.2-9.5,10.9-12.3"/>
	<path class="st11" d="M71.2,402.7c0,0,0.7-1.2,1.9-2.9"/>
	<path class="st11" d="M87.6,386.4c0,0,5,6.3,6.3,13"/>
	<path class="st11" d="M82.5,390.6c0,0,1.3-0.8,1.3,7.5"/>
	<path class="st11" d="M85.5,382.6c0,0,2.5-2.5,0.8-7.1"/>
	<line class="st11" x1="82.1" y1="386.8" x2="80" y2="383.5"/>
	<path class="st11" d="M78.4,390.6c0,0-6.3-4.2-10-4.2"/>
	<rect x="67.2" y="417.4" class="st16" width="32.3" height="46.6"/>
</g>
<g id="freepik--Floor--inject-32">
	<line class="st17" x1="459" y1="464" x2="484" y2="464"/>
	<line class="st17" x1="149" y1="464" x2="450" y2="464"/>
	<line class="st17" x1="27" y1="464" x2="141" y2="464"/>
</g>
<g id="freepik--Character--inject-32">
	<path class="st4" d="M289.3,217.6c0,0-4.9,3.7-4.9,4.9s4.2,2.3,4.2,2.3l3-6.7L289.3,217.6z"/>
	<path class="st4" d="M292.8,208.3c0,0-3.7,7.2-3.5,8.4s0.5,3-0.2,3.5s-2.8,4.2-2.8,5.8s-2.1,10.4-1.4,11.4s5.1,2.8,5.1,2.8v3.7
		l20.6-0.2l1.2-5.8c0,0-7.7-0.9-10.2-4.2s-1.9-12.1-2.8-17.6S295.4,208.8,292.8,208.3z"/>
	<path class="st3" d="M311.4,205.3c0,0-7.9-3-13.7-3s-6.5,2.3-6.5,4.6s2.8,4.4,2.8,4.4s-3,3.9-2.8,5.6c0.1,0.9,0.2,1.9,0.2,2.8
		l-2.3,6.7l1.2,0.5c0,0,1.6-1.9,3.3-1.4s1.9,5.1,1.4,6.5c-0.5,1.1-1.1,2.1-1.9,3c0,0,2.3,3.9,3.5,4.9s5.1,2.1,8.1,2.1s6.3,0,7.2-0.9
		c1.3-1.4,2.3-3,3.3-4.6c0.2-0.7,6.7-7.2,7.2-15.1S319.7,206.7,311.4,205.3z"/>
	<path class="st18" d="M293.5,225.5c1.3,1.2,1.9,3.1,1.5,4.8c-0.5,3.3-2.3,5.4-3.5,5.7s-3.1-1.2-2.6-1.9"/>
	<path class="st19" d="M326.7,461.1c0,0-0.2,11,0.2,13.7s0,4.7,1.4,5.4c3.1,1.2,6.6,1.5,9.9,0.9c3.6-0.9,5.2-1.1,5.2-3.6
		s-2.2-10.6-2.2-11.7s-0.7-5.4-0.7-5.4S330.6,462.9,326.7,461.1z"/>
	<path class="st4" d="M343.4,477.5c0-0.6-0.1-1.3-0.2-1.9c-2.5,1.4-5.2,2.2-8.1,2.4c-2.8,0-5.6-0.6-8.1-1.9c0.2,2,0.1,3.5,1.3,4.1
		c3.1,1.2,6.6,1.5,9.9,0.9C341.8,480.2,343.4,480,343.4,477.5z"/>
	<path class="st3" d="M271.2,329.5c0,0-3.3,38-2.8,49s2.8,30.5,2.8,32.3s-3,21.5-1.8,26.8s1.3,16,1.8,18.5s0.8,4.3,6.8,5.8
		s11.8-3,11.8-3s3-13,3-18.8s-0.8-23.5,0-27s3.3-28.5,4.3-34.5s2.5-26.3,2.5-26.3l3.3-0.8c0,0,7.3,44.5,8.8,48.8s9.2,42.5,10.2,46.3
		s4.6,11,4.6,11c2.2,0.4,4.5,0.7,6.8,0.8c2.8,0,7.8-2.5,7.8-2.5s-2.3-29.3-2.3-35.8s-3.8-26.3-3.8-27s1.3-18-0.5-27.3
		s-1.5-23.3-1.5-23.3l-1-16.5L271.2,329.5z"/>
	<polyline class="st20" points="278,342.8 278,345.5 283.7,350.3 293,347.8 	"/>
	<polyline class="st20" points="329,340.3 329.2,344.3 322,348.5 313.7,347.3 	"/>
	<line class="st20" x1="293.2" y1="353.3" x2="309" y2="350.5"/>
	<path class="st20" d="M316.5,399c0,0,6.5-2.3,12.3-2"/>
	<path class="st20" d="M332.2,394.8c0,0-6.5,0.5-11,1"/>
	<path class="st20" d="M278,411.8c0,0,6.3-1.3,10.3,0.8"/>
	<path class="st20" d="M287.5,409.5c0,0-7.8-1.3-12-0.5"/>
	<path class="st19" d="M271.8,461.3l-2.2,3.8c0,0-4.7,0-5.9,3.2c-0.9,2.4-0.5,5,1.1,7c0.9,0.9,8.3,3.2,10.1,4s5.2,2.9,9.4,2.9
		c3.2,0,5.8-2.5,5.8-5.7c0-0.2,0-0.4,0-0.6c-0.4-2.5-1.4-11.2-1.4-11.2L271.8,461.3z"/>
	<path class="st4" d="M263.2,471.4c0.1,1.4,0.6,2.8,1.5,3.9c0.9,0.9,8.3,3.2,10.1,4s5.2,2.9,9.4,2.9c3,0,5.5-2.3,5.8-5.3
		c-2.7,1.9-6,2.8-9.4,2.5c-2.7-0.4-7.9-2.9-13.1-5.4C265.9,473.4,264.5,472.5,263.2,471.4z"/>
	<path class="st4" d="M270.3,453.7c0,0,7,4.3,12.1,4.5s8.1-2.3,8.6-2.3s0.9-0.2,0.7,1.6s-1.4,4.5-1.8,6.7s0.9,2.5-1.8,3.8
		s-10.9,1.6-13.9-0.5c-1.4-0.9-3.8-3.4-3.6-4.3s-0.8-5.3-0.8-6.4S269.3,454.1,270.3,453.7z"/>
	<path class="st4" d="M325.1,454.8c2.7,1.5,5.7,2.3,8.8,2.1c5.2-0.2,6.9-2.8,6.9-2.8c1.1,0,2.1,0.8,2.3,1.9c0.3,2.1,0.4,4.3,0.4,6.5
		c0.2,1-0.4,1.9-1.3,2.3c-1.1,0.5-4.9,3.1-7.9,3.1s-7.6-1.1-7.7-2.5c-0.2-1.8-0.7-3.6-1.4-5.2C324.3,458.5,324.4,455.9,325.1,454.8z
		"/>
	<path class="st4" d="M300.7,345c11-0.5,21.8-3.2,31.7-8l-0.7-11l-60.5,3.5c0,0-0.3,3.5-0.7,8.6C274.3,340.6,284.3,345.8,300.7,345z
		"/>
	<path class="st4" d="M349.8,330.3c0,0,0,3.3,0.1,3.6s-2.6,2.1-2.6,2.7s-0.4,5.8-1.6,7.5s-1.4,3.9,0,3.9c1.5-0.2,2.8-1.2,3.4-2.6
		c0.4-1.1,0.8-2.2,1.4-3.3l2,5.5c-0.2,1.5-0.7,2.9-1.4,4.3c-1.1,1.9-3,6.9-1,7s6.9-3.6,8.3-5s2.1-5.4,2.1-8
		c-0.2-4.1-0.8-8.2-1.8-12.3c-0.8-2.2,0-5.7,0-5.7C356,329.5,353,330.3,349.8,330.3z"/>
	<path class="st4" d="M353.2,339.3c0,0,0.3,3.9,1.4,5c0.9,1.1,1.6,2.4,2,3.8v2.6c-1.4,0.6-2.9,1.1-4.4,1.5c-1.3,0.3-4-1-4.1,0.8
		s6.3,1.5,7.9,1.5s2.3-0.3,2.9-1c0.8-1.7,1.4-3.4,1.6-5.3"/>
	<path class="st18" d="M257.8,216.5c1.2-1.6,2.2-3.4,3-5.2c1.2-2.8,3.2-6.4,4.7-7.9s4.8-3.1,2.5-3.5c-1.6-0.4-3.3,0-4.6,1
		c-0.6,0.6-1.2,1.2-1.7,1.9c-0.6-1.7-1.3-3.3-2.1-4.9c-0.7-1.2-1.5-7.4-1.7-9.4s-1.6-1.7-2.2-1.4s-0.1,2.2-0.1,3s0.1,6.8,0.1,6.8
		c-0.5-1-1.1-2-1.9-2.8c-0.7-0.5-2.5-0.4-2.6,0.4s-0.3,2.2-0.3,2.2s-1.5-1.6-2.7-0.4s-1.1,2.1-1.1,2.1s-1.7,0.9-1.7,2
		s1.6,6.2,2.2,7.9c0.6,1.4,1.3,2.7,2.1,3.9l-0.9,4.8c0,0,0.9-0.7,3.5-0.7c1.5,0,3,0.5,4.2,1.5l1.4,0.5L257.8,216.5z"/>
	<line class="st11" x1="250.9" y1="196.6" x2="251.9" y2="199.1"/>
	<line class="st11" x1="247.1" y1="198.4" x2="248.8" y2="201.1"/>
	<line class="st11" x1="261.7" y1="202.8" x2="262.3" y2="204.4"/>
	<path class="st19" d="M316,249.1l0.5-3.3c0,0,0.2-2.8-7-5.3s-17.6-0.5-21.4,1.2c-2.9,1.2-6,2.1-9,2.8l0.2,3.5c0,0-11.1-3.3-13-3.3
		s-6.7-2.8-6.7-2.8l-2.5-3l1.2-22.5c-1.7-1.8-4-2.8-6.5-2.8c-3.9,0.2-7.2,5.1-7.2,5.1s-3.3,21.1-3.7,24.8c-0.3,3.1,0.5,6.2,2.3,8.8
		c1.2,1.6,23.4,26.7,23.4,26.7s-1.2,42.2-1.2,43.2c0,0.2,0,0.5-0.1,0.7c-0.4,1.1-0.4,2.4,0.1,3.5c0.9,1.6,8.8,9.4,26.7,10.7
		c9.3,0.7,16-0.7,24.8-2.8c5.9-1.6,11.4-4.1,16.5-7.4l-0.2-3.3c0,0,0.2-2.1,0.2-5.6s-2.8-17.6-2.8-18.6v-5.8c0,0,8.4,9.8,8.8,10.4
		s5.8,26.5,5.8,26.5s2.8,1.2,8.1,0.7c3.3-0.4,6.2-2.3,7.9-5.1c0,0-4.9-30.9-5.6-33.4s-13.9-22.5-13.9-23.4s-3.9-12.5-6.3-13.7
		S316,249.1,316,249.1z"/>
	<line class="st17" x1="330.6" y1="293.7" x2="331.1" y2="269.3"/>
	<path class="st17" d="M331.1,281.6c0,0,3.7-10.7,3.7-11.8"/>
	<path class="st17" d="M290,261.9c3,7.5,8.1,19.1,12.6,25.3"/>
	<path class="st17" d="M287.3,255c0,0,0.6,1.7,1.7,4.4"/>
	<path class="st17" d="M301,289.2c0.7,0.9,1.4,1.7,2.2,2.4"/>
	<path class="st17" d="M288.9,269.1c0,0,5.4,10.5,10.2,17.4"/>
	<line class="st17" x1="259.4" y1="263.6" x2="258" y2="260.5"/>
	<polyline class="st17" points="264.3,268.4 266.6,279.1 260.6,266.1 	"/>
	<path class="st17" d="M250.4,240.7c-0.7,0.5-1.3,1-1.9,1.5"/>
	<path class="st17" d="M257.1,238.9c0,0-1.8-0.7-4.7,0.6"/>
	<path class="st17" d="M251.5,237.1c0,0-5.1,2.1-6,4.9"/>
	<path class="st17" d="M282.6,248c0,0,18.6-6.7,31.3,0.5"/>
	<path class="st17" d="M303.3,247.5c3.3,0.1,6.6,0.7,9.8,1.9"/>
	<path class="st17" d="M328,324.4c1.5-0.6,2.9-1.4,4.3-2.2"/>
	<path class="st17" d="M287,332.1c3.4,0.2,6.8,0.2,10.2-0.1c9.3-0.7,18.4-2.8,27.1-6"/>
	<path class="st17" d="M266.8,323.9c0,0,4.3,6,16.6,7.8"/>
</g>
<g>
	<path class="st10" d="M169.3,182.1v2.2h3.9v-0.8c0-0.4,0.1-0.6,0.2-0.8c0.1-0.2,0.3-0.2,0.6-0.2c0.2,0,0.4,0.1,0.5,0.2
		s0.2,0.4,0.2,0.8v2.4h-7.2c-0.4,0-0.6-0.1-0.8-0.2c-0.2-0.1-0.2-0.3-0.2-0.6c0-0.2,0.1-0.4,0.2-0.5c0.2-0.1,0.4-0.2,0.8-0.2h0.2v-6
		h-0.2c-0.4,0-0.6-0.1-0.8-0.2c-0.2-0.1-0.2-0.3-0.2-0.6c0-0.2,0.1-0.4,0.2-0.6c0.2-0.1,0.4-0.2,0.8-0.2h6.9v2.3
		c0,0.4-0.1,0.6-0.2,0.8c-0.1,0.2-0.3,0.2-0.6,0.2c-0.2,0-0.4-0.1-0.6-0.2c-0.1-0.2-0.2-0.4-0.2-0.8v-0.8h-3.6v2.2h1.3
		c0-0.4,0-0.7,0.1-0.8c0.2-0.2,0.4-0.4,0.7-0.4c0.2,0,0.4,0.1,0.5,0.2c0.1,0.2,0.2,0.4,0.2,0.8v1.8c0,0.3,0,0.6-0.1,0.7
		c-0.2,0.2-0.4,0.4-0.6,0.4c-0.3,0-0.5-0.1-0.7-0.4c-0.1-0.1-0.1-0.4-0.1-0.8h-1.2V182.1z"/>
	<path class="st10" d="M178.5,179.1v0.5c0.3-0.2,0.6-0.4,0.9-0.5c0.3-0.1,0.7-0.2,1.1-0.2c0.9,0,1.6,0.3,2.1,0.8
		c0.4,0.4,0.6,1,0.6,1.8v2.8c0.3,0,0.6,0.1,0.7,0.2c0.2,0.1,0.2,0.3,0.2,0.6c0,0.2-0.1,0.4-0.2,0.5c-0.2,0.1-0.4,0.2-0.8,0.2h-1.4
		c-0.4,0-0.6-0.1-0.8-0.2c-0.2-0.1-0.2-0.3-0.2-0.6c0-0.2,0.1-0.4,0.2-0.5c0.2-0.1,0.4-0.2,0.7-0.2v-2.9c0-0.3-0.1-0.6-0.3-0.7
		c-0.2-0.2-0.6-0.3-1.1-0.3c-0.4,0-0.7,0.1-0.9,0.2c-0.3,0.1-0.6,0.4-1,0.9v2.8c0.4,0,0.6,0,0.8,0.1s0.4,0.4,0.4,0.7
		c0,0.2-0.1,0.4-0.2,0.5c-0.2,0.1-0.4,0.2-0.8,0.2h-1.7c-0.4,0-0.6-0.1-0.8-0.2c-0.2-0.1-0.2-0.3-0.2-0.6s0.1-0.5,0.4-0.6
		c0.1-0.1,0.4-0.1,0.8-0.1v-3.7c-0.3,0-0.6-0.1-0.7-0.2c-0.2-0.1-0.2-0.3-0.2-0.6c0-0.2,0.1-0.4,0.2-0.5c0.2-0.1,0.4-0.2,0.8-0.2
		H178.5z"/>
	<path class="st10" d="M191.6,179.4c0.2-0.2,0.4-0.3,0.6-0.3c0.2,0,0.4,0.1,0.5,0.2s0.2,0.4,0.2,0.8v1c0,0.4-0.1,0.6-0.2,0.8
		s-0.3,0.2-0.6,0.2c-0.2,0-0.4-0.1-0.5-0.2c-0.1-0.1-0.2-0.3-0.2-0.5c-0.1-0.3-0.2-0.5-0.4-0.6c-0.4-0.2-0.9-0.4-1.5-0.4
		c-0.7,0-1.3,0.2-1.7,0.6c-0.4,0.4-0.7,1-0.7,1.6s0.2,1.1,0.6,1.4s1.1,0.5,2.1,0.5c0.6,0,1.2-0.1,1.6-0.2c0.2-0.1,0.5-0.2,0.7-0.4
		s0.4-0.3,0.6-0.3c0.2,0,0.4,0.1,0.5,0.2s0.2,0.3,0.2,0.5c0,0.3-0.2,0.7-0.7,1c-0.7,0.5-1.7,0.7-3,0.7c-1.2,0-2.1-0.2-2.8-0.7
		c-0.9-0.7-1.3-1.6-1.3-2.7c0-1.1,0.4-2,1.1-2.7s1.7-1.1,2.8-1.1c0.4,0,0.8,0,1.2,0.1C191,179.1,191.3,179.2,191.6,179.4z"/>
	<path class="st10" d="M198.1,179.1v1c0.6-0.5,1.1-0.8,1.5-0.9c0.4-0.2,0.7-0.2,1-0.2c0.5,0,1,0.2,1.4,0.6c0.3,0.2,0.5,0.5,0.5,0.8
		c0,0.2-0.1,0.4-0.2,0.6c-0.2,0.2-0.3,0.2-0.5,0.2s-0.4-0.1-0.6-0.3s-0.4-0.3-0.6-0.3c-0.2,0-0.5,0.1-1,0.4c-0.4,0.3-1,0.7-1.6,1.2
		v2.3h2.2c0.4,0,0.6,0.1,0.8,0.2c0.2,0.1,0.2,0.3,0.2,0.6c0,0.2-0.1,0.4-0.2,0.5c-0.2,0.1-0.4,0.2-0.8,0.2h-4.6
		c-0.4,0-0.6-0.1-0.8-0.2c-0.2-0.1-0.2-0.3-0.2-0.6c0-0.2,0.1-0.4,0.2-0.5c0.2-0.1,0.4-0.2,0.8-0.2h0.9v-3.7H196
		c-0.4,0-0.6-0.1-0.8-0.2s-0.2-0.3-0.2-0.6c0-0.2,0.1-0.4,0.2-0.5c0.2-0.1,0.4-0.2,0.8-0.2h2.1V179.1z"/>
	<path class="st10" d="M206.7,185.9l-2.6-5.2c-0.2,0-0.4-0.1-0.6-0.3s-0.2-0.3-0.2-0.5s0.1-0.4,0.2-0.6c0.2-0.1,0.4-0.2,0.8-0.2h1.4
		c0.4,0,0.6,0.1,0.8,0.2c0.2,0.1,0.2,0.3,0.2,0.6c0,0.2-0.1,0.4-0.2,0.5s-0.4,0.2-0.7,0.2l1.8,3.5l1.8-3.5c-0.3,0-0.6-0.1-0.7-0.2
		s-0.2-0.3-0.2-0.6c0-0.2,0.1-0.4,0.2-0.5c0.2-0.1,0.4-0.2,0.8-0.2h1.4c0.4,0,0.6,0.1,0.8,0.2c0.2,0.1,0.2,0.3,0.2,0.6
		c0,0.2-0.1,0.4-0.2,0.5c-0.1,0.1-0.3,0.2-0.6,0.2l-3.5,6.9c0.4,0,0.6,0,0.8,0.1c0.2,0.2,0.4,0.4,0.4,0.7c0,0.2-0.1,0.4-0.2,0.5
		c-0.2,0.1-0.4,0.2-0.8,0.2h-3.3c-0.4,0-0.6-0.1-0.8-0.2c-0.2-0.1-0.2-0.3-0.2-0.5s0.1-0.4,0.2-0.6c0.2-0.1,0.4-0.2,0.8-0.2h1.5
		L206.7,185.9z"/>
	<path class="st10" d="M214.8,185.1v2.5h0.9c0.4,0,0.6,0.1,0.8,0.2c0.2,0.1,0.2,0.3,0.2,0.6c0,0.2-0.1,0.4-0.2,0.5
		c-0.2,0.1-0.4,0.2-0.8,0.2H213c-0.4,0-0.6-0.1-0.8-0.2c-0.2-0.1-0.2-0.3-0.2-0.5s0.1-0.4,0.2-0.6c0.2-0.1,0.4-0.2,0.8-0.2h0.3v-6.9
		H213c-0.4,0-0.6-0.1-0.8-0.2s-0.2-0.3-0.2-0.6c0-0.2,0.1-0.4,0.2-0.5c0.2-0.1,0.4-0.2,0.8-0.2h1.8v0.5c0.4-0.2,0.7-0.4,1.1-0.5
		c0.4-0.1,0.8-0.2,1.2-0.2c1,0,1.9,0.4,2.7,1.1s1.1,1.5,1.1,2.4c0,1-0.4,1.8-1.3,2.5c-0.7,0.5-1.5,0.8-2.5,0.8
		c-0.4,0-0.8-0.1-1.2-0.2C215.6,185.5,215.2,185.3,214.8,185.1z M219.4,182.4c0-0.2-0.1-0.5-0.3-0.8s-0.4-0.6-0.8-0.8
		c-0.4-0.2-0.8-0.3-1.2-0.3c-0.8,0-1.4,0.3-1.8,0.9c-0.3,0.4-0.5,0.8-0.5,1.1c0,0.4,0.2,0.8,0.7,1.2s1,0.6,1.6,0.6s1.2-0.2,1.6-0.6
		C219.2,183.3,219.4,182.9,219.4,182.4z"/>
	<path class="st10" d="M225.5,180.7v3.1c0,0.3,0.1,0.5,0.2,0.6c0.2,0.2,0.6,0.2,1.1,0.2c0.8,0,1.5-0.2,2.2-0.5
		c0.3-0.1,0.5-0.2,0.6-0.2c0.2,0,0.4,0.1,0.5,0.2c0.1,0.1,0.2,0.3,0.2,0.5s-0.1,0.4-0.2,0.5c-0.2,0.2-0.7,0.4-1.4,0.6
		c-0.7,0.2-1.3,0.3-1.8,0.3c-1,0-1.7-0.2-2.1-0.6c-0.5-0.4-0.7-0.9-0.7-1.5v-3.4h-0.6c-0.4,0-0.6-0.1-0.8-0.2s-0.2-0.3-0.2-0.6
		c0-0.2,0.1-0.4,0.2-0.5c0.2-0.1,0.4-0.2,0.8-0.2h0.6v-1.4c0-0.4,0.1-0.6,0.2-0.8s0.3-0.2,0.6-0.2c0.2,0,0.4,0.1,0.5,0.2
		c0.1,0.2,0.2,0.4,0.2,0.8v1.4h2.8c0.4,0,0.6,0.1,0.8,0.2c0.2,0.1,0.2,0.3,0.2,0.6c0,0.2-0.1,0.4-0.2,0.5s-0.4,0.2-0.8,0.2h-2.9
		V180.7z"/>
	<path class="st10" d="M235.8,179.1v5.2h1.8c0.4,0,0.6,0.1,0.8,0.2c0.2,0.1,0.2,0.3,0.2,0.6c0,0.2-0.1,0.4-0.2,0.5
		c-0.2,0.1-0.4,0.2-0.8,0.2h-5.2c-0.4,0-0.6-0.1-0.8-0.2c-0.2-0.1-0.2-0.3-0.2-0.6c0-0.2,0.1-0.4,0.2-0.5c0.2-0.1,0.4-0.2,0.8-0.2
		h1.8v-3.7H233c-0.4,0-0.6-0.1-0.8-0.2c-0.2-0.1-0.2-0.3-0.2-0.6c0-0.2,0.1-0.4,0.2-0.5c0.2-0.1,0.4-0.2,0.8-0.2H235.8z
		 M235.6,176.2v1.6h-1.8v-1.6H235.6z"/>
	<path class="st10" d="M248.2,182.6c0,0.6-0.2,1.2-0.5,1.7s-0.8,1-1.5,1.3c-0.6,0.3-1.3,0.5-2,0.5s-1.4-0.2-2-0.5s-1.1-0.8-1.5-1.3
		c-0.3-0.6-0.5-1.1-0.5-1.7c0-0.6,0.2-1.2,0.5-1.8s0.8-1.1,1.5-1.4s1.3-0.5,2-0.5s1.4,0.2,2,0.5s1.1,0.8,1.5,1.4
		C248.1,181.4,248.2,182,248.2,182.6z M246.7,182.6c0-0.5-0.2-0.9-0.5-1.4c-0.5-0.6-1.1-0.8-1.9-0.8c-0.7,0-1.3,0.2-1.7,0.7
		c-0.5,0.4-0.7,1-0.7,1.5s0.2,0.9,0.7,1.3c0.5,0.4,1,0.6,1.7,0.6s1.3-0.2,1.7-0.6C246.5,183.6,246.7,183.1,246.7,182.6z"/>
	<path class="st10" d="M251.9,179.1v0.5c0.3-0.2,0.6-0.4,0.9-0.5c0.3-0.1,0.7-0.2,1.1-0.2c0.9,0,1.6,0.3,2.2,0.8
		c0.4,0.4,0.6,1,0.6,1.8v2.8c0.3,0,0.6,0.1,0.7,0.2c0.2,0.1,0.2,0.3,0.2,0.6c0,0.2-0.1,0.4-0.2,0.5c-0.2,0.1-0.4,0.2-0.8,0.2h-1.4
		c-0.4,0-0.6-0.1-0.8-0.2c-0.2-0.1-0.2-0.3-0.2-0.6c0-0.2,0.1-0.4,0.2-0.5c0.2-0.1,0.4-0.2,0.7-0.2v-2.9c0-0.3-0.1-0.6-0.3-0.7
		c-0.2-0.2-0.6-0.3-1.1-0.3c-0.4,0-0.7,0.1-0.9,0.2c-0.3,0.1-0.6,0.4-1,0.9v2.8c0.4,0,0.6,0,0.8,0.1s0.4,0.4,0.4,0.7
		c0,0.2-0.1,0.4-0.2,0.5c-0.2,0.1-0.4,0.2-0.8,0.2h-1.7c-0.4,0-0.6-0.1-0.8-0.2c-0.2-0.1-0.2-0.3-0.2-0.6s0.1-0.5,0.4-0.6
		c0.1-0.1,0.4-0.1,0.8-0.1v-3.7c-0.3,0-0.6-0.1-0.7-0.2c-0.2-0.1-0.2-0.3-0.2-0.6c0-0.2,0.1-0.4,0.2-0.5c0.2-0.1,0.4-0.2,0.8-0.2
		H251.9z"/>
</g>
</svg>
